<?xml version="1.0" encoding="utf-8"?>
<!-- Generator: Adobe Illustrator 16.0.4, SVG Export Plug-In . SVG Version: 6.00 Build 0)  -->
<!DOCTYPE svg PUBLIC "-//W3C//DTD SVG 1.1//EN" "http://www.w3.org/Graphics/SVG/1.1/DTD/svg11.dtd">
<svg version="1.1" id="Layer_1" xmlns="http://www.w3.org/2000/svg" xmlns:xlink="http://www.w3.org/1999/xlink" x="0px" y="0px"
	 width="16px" height="16px" viewBox="0 0 16 16" enable-background="new 0 0 16 16" xml:space="preserve">
<g id="New_Symbol_7">
	<path fill="#C1272D" d="M8,1C4.135,1,1,4.135,1,8s3.135,7,7,7c3.866,0,7-3.134,7-7C15,4.136,11.867,1,8,1z M8,2.898
		c1.057,0,2.04,0.325,2.855,0.877l-7.081,7.081C3.223,10.041,2.898,9.059,2.898,8C2.898,5.188,5.188,2.898,8,2.898z M8,13.102
		c-1.07,0-2.063-0.334-2.885-0.898L12.2,5.118c0.565,0.823,0.901,1.815,0.901,2.885C13.102,10.812,10.812,13.102,8,13.102z"/>
</g>
</svg>
