<?xml version="1.0" encoding="utf-8"?>
<!-- Generator: Adobe Illustrator 16.0.4, SVG Export Plug-In . SVG Version: 6.00 Build 0)  -->
<!DOCTYPE svg PUBLIC "-//W3C//DTD SVG 1.1//EN" "http://www.w3.org/Graphics/SVG/1.1/DTD/svg11.dtd">
<svg version="1.1" id="Layer_1" xmlns="http://www.w3.org/2000/svg" xmlns:xlink="http://www.w3.org/1999/xlink" x="0px" y="0px"
	 width="16px" height="16px" viewBox="0 0 16 16" enable-background="new 0 0 16 16" xml:space="preserve">
<path fill="#C1272D" d="M8,1C4.134,1,1,4.134,1,8s3.134,7,7,7s7-3.134,7-7S11.866,1,8,1z M10.176,3.406
	c0.55,0,0.999,0.412,0.999,0.919c0,0.509-0.449,0.92-0.999,0.92s-0.997-0.412-0.997-0.92C9.179,3.817,9.626,3.406,10.176,3.406z
	 M12.352,5.825l-1.184,1.124c-0.096,0.092-0.229,0.122-0.356,0.104c-0.119,0.021-0.246-0.001-0.345-0.082l-0.78-0.629L8.255,8.537
	l1.167,1.094c0.194,0.18,0.231,0.449,0.122,0.668l0,0l-0.432,2.617c-0.054,0.32-0.348,0.535-0.658,0.482
	c-0.311-0.057-0.518-0.357-0.467-0.678l0.391-2.361L7.257,9.307l-0.601,0.861c-0.048,0.07-0.111,0.125-0.182,0.17
	c-0.132,0.18-0.401,0.285-0.682,0.236l-2.82-0.477C2.629,10.037,2.409,9.779,2.482,9.52c0.074-0.262,0.412-0.426,0.757-0.367
	l2.319,0.393c0.006-0.01,0.007-0.023,0.014-0.033l1.035-1.48l1.438-2.204L7.187,5.888L6.095,6.925
	c-0.158,0.151-0.42,0.154-0.583,0.008C5.348,6.788,5.344,6.547,5.504,6.397l1.182-1.123C6.767,5.197,6.875,5.16,6.984,5.16
	C7.022,5.146,7.06,5.132,7.102,5.129l1.703-0.121c0.073-0.005,0.142,0.012,0.203,0.04c0.123,0.004,0.245,0.026,0.358,0.088
	l0.173,0.095c0.048,0.027,0.079,0.066,0.119,0.101C9.681,5.344,9.71,5.353,9.732,5.37l1.054,0.852l0.975-0.923
	c0.159-0.151,0.418-0.154,0.583-0.009C12.506,5.435,12.51,5.676,12.352,5.825z"/>
</svg>
