<?xml version="1.0" encoding="utf-8"?>
<!-- Generator: Adobe Illustrator 16.0.4, SVG Export Plug-In . SVG Version: 6.00 Build 0)  -->
<!DOCTYPE svg PUBLIC "-//W3C//DTD SVG 1.1//EN" "http://www.w3.org/Graphics/SVG/1.1/DTD/svg11.dtd">
<svg version="1.1" id="Layer_1" xmlns="http://www.w3.org/2000/svg" xmlns:xlink="http://www.w3.org/1999/xlink" x="0px" y="0px"
	 width="16px" height="16px" viewBox="0 0 16 16" enable-background="new 0 0 16 16" xml:space="preserve">
<symbol  id="New_Symbol_142_1_" viewBox="-6 -5.5 12 11">
	<polygon points="-1,-5.5 -1,-4.5 -2,-4.5 -2,-5.5 	"/>
	<polygon points="-2,-4.5 -2,-3.5 -3,-3.5 -3,-4.5 	"/>
	<polygon points="-4,5.5 -4,4.5 -3,4.5 -3,5.5 	"/>
	<polygon points="1,-5.5 2,-5.5 2,-4.5 1,-4.5 	"/>
	<polygon points="2,-4.5 3,-4.5 3,-3.5 2,-3.5 	"/>
	<path d="M5-0.5v1H4v1v1v1H3v1H2v-1H0h-2v1h-1v-1h-1v-1v-1v-1h-1v-1h-1v-1v-2h1v2h1v-2h1v1h3h3v-1h1v2h1v-2h1v2v1H5z M-3-0.5v2h1v-2
		H-3z M2-0.5v2h1v-2H2z"/>
	<polygon points="4,5.5 3,5.5 3,4.5 4,4.5 	"/>
</symbol>
<g id="New_Symbol_142">
</g>
<g id="New_Symbol_9">
	<path d="M15.287,12.99l-2.854-2.854c0.533-0.942,0.841-2.029,0.841-3.187c0-3.584-2.916-6.5-6.5-6.5c-3.584,0-6.5,2.916-6.5,6.5
		c0,3.584,2.916,6.5,6.5,6.5c1.34,0,2.587-0.408,3.623-1.107l2.769,2.77c0.293,0.293,0.678,0.439,1.062,0.439
		s0.768-0.146,1.061-0.439C15.872,14.525,15.872,13.576,15.287,12.99z M2.274,6.949c0-2.481,2.019-4.5,4.5-4.5
		c2.481,0,4.5,2.019,4.5,4.5s-2.019,4.5-4.5,4.5C4.292,11.449,2.274,9.43,2.274,6.949z"/>
	
		<use xlink:href="#New_Symbol_142_1_"  width="12" height="11" x="-6" y="-5.5" transform="matrix(0.6666 0 0 -0.6666 6.9209 6.8579)" overflow="visible"/>
</g>
<g>
</g>
<g>
</g>
<g>
</g>
<g>
</g>
<g>
</g>
<g>
</g>
<g>
</g>
<g>
</g>
<g>
</g>
<g>
</g>
<g>
</g>
<g>
</g>
<g>
</g>
<g>
</g>
<g>
</g>
<g>
</g>
<g>
</g>
<g>
</g>
<g>
</g>
</svg>
