<?xml version="1.0" encoding="utf-8"?>
<!-- Generator: Adobe Illustrator 16.0.4, SVG Export Plug-In . SVG Version: 6.00 Build 0)  -->
<!DOCTYPE svg PUBLIC "-//W3C//DTD SVG 1.1//EN" "http://www.w3.org/Graphics/SVG/1.1/DTD/svg11.dtd">
<svg version="1.1" id="Layer_1" xmlns="http://www.w3.org/2000/svg" xmlns:xlink="http://www.w3.org/1999/xlink" x="0px" y="0px"
	 width="16px" height="16px" viewBox="0 0 16 16" enable-background="new 0 0 16 16" xml:space="preserve">
<symbol  id="New_Symbol_216" viewBox="-7.662 -7.661 15.325 15.322">
	<path d="M5.417,5.418c-2.992,2.99-7.844,2.99-10.836,0c-2.992-2.991-2.992-7.844,0-10.835c2.992-2.993,7.845-2.992,10.836,0
		C8.411-2.428,8.411,2.427,5.417,5.418z M-0.124,6.337c0.809,0,1.467-0.658,1.467-1.467c0-0.817-0.658-1.481-1.467-1.481
		c-0.818,0-1.482,0.664-1.482,1.481C-1.605,5.693-0.955,6.337-0.124,6.337z M2.235-4.454c0-0.309-0.151-0.459-0.458-0.459h-3.786
		c-0.309,0-0.458,0.15-0.458,0.459v0.965c0,0.308,0.149,0.458,0.458,0.458h0.7v4.073h-0.714c-0.308,0-0.458,0.148-0.458,0.458v0.964
		c0,0.31,0.15,0.459,0.458,0.459h2.642c0.309,0,0.458-0.149,0.458-0.459v-5.495h0.701c0.307,0,0.458-0.149,0.458-0.458V-4.454z"/>
</symbol>
<use xlink:href="#New_Symbol_216"  width="15.325" height="15.322" x="-7.662" y="-7.661" transform="matrix(0.9136 0 0 -0.9137 8 8)" overflow="visible"/>
<g>
</g>
<g>
</g>
<g>
</g>
<g>
</g>
<g>
</g>
<g>
</g>
<g>
</g>
<g>
</g>
<g>
</g>
<g>
</g>
<g>
</g>
<g>
</g>
<g>
</g>
<g>
</g>
<g>
</g>
<g>
</g>
<g>
</g>
<g>
</g>
</svg>
