<?xml version="1.0" encoding="utf-8"?>
<!-- Generator: Adobe Illustrator 16.0.4, SVG Export Plug-In . SVG Version: 6.00 Build 0)  -->
<!DOCTYPE svg PUBLIC "-//W3C//DTD SVG 1.1//EN" "http://www.w3.org/Graphics/SVG/1.1/DTD/svg11.dtd">
<svg version="1.1" id="Layer_1" xmlns="http://www.w3.org/2000/svg" xmlns:xlink="http://www.w3.org/1999/xlink" x="0px" y="0px"
	 width="16px" height="16px" viewBox="-1 0 16 16" enable-background="new -1 0 16 16" xml:space="preserve">
<symbol  id="New_Symbol_142" viewBox="-6 -5.5 12 11">
	<polygon points="-1,-5.5 -1,-4.5 -2,-4.5 -2,-5.5 	"/>
	<polygon points="-2,-4.5 -2,-3.5 -3,-3.5 -3,-4.5 	"/>
	<polygon points="-4,5.5 -4,4.5 -3,4.5 -3,5.5 	"/>
	<polygon points="1,-5.5 2,-5.5 2,-4.5 1,-4.5 	"/>
	<polygon points="2,-4.5 3,-4.5 3,-3.5 2,-3.5 	"/>
	<path d="M5-0.5v1H4v1v1v1H3v1H2v-1H0h-2v1h-1v-1h-1v-1v-1v-1h-1v-1h-1v-1v-2h1v2h1v-2h1v1h3h3v-1h1v2h1v-2h1v2v1H5z M-3-0.5v2h1v-2
		H-3z M2-0.5v2h1v-2H2z"/>
	<polygon points="4,5.5 3,5.5 3,4.5 4,4.5 	"/>
</symbol>
<use xlink:href="#New_Symbol_142"  width="12" height="11" x="-6" y="-5.5" transform="matrix(1.1667 0 0 -1.1667 7 8.0005)" overflow="visible"/>
<line fill="none" stroke="#C1272D" stroke-width="2" stroke-linecap="round" stroke-miterlimit="10" x1="1.14" y1="13.861" x2="12.86" y2="2.14"/>
<g>
</g>
<g>
</g>
<g>
</g>
</svg>
