<?xml version="1.0" encoding="utf-8"?>
<!-- Generator: Adobe Illustrator 16.0.4, SVG Export Plug-In . SVG Version: 6.00 Build 0)  -->
<!DOCTYPE svg PUBLIC "-//W3C//DTD SVG 1.1//EN" "http://www.w3.org/Graphics/SVG/1.1/DTD/svg11.dtd">
<svg version="1.1" id="Layer_1" xmlns="http://www.w3.org/2000/svg" xmlns:xlink="http://www.w3.org/1999/xlink" x="0px" y="0px"
	 width="16px" height="16px" viewBox="0 0 16 16" enable-background="new 0 0 16 16" xml:space="preserve">
<g id="New_Symbol_30">
	<path d="M12.324,2.383h0.73V1H2.945v1.383H3.82c0.109,2.64,1.074,4.368,2.755,4.926v1.47c-1.661,0.551-2.624,2.248-2.75,4.839
		h-0.88V15h10.109v-1.383H12.32c-0.128-2.591-1.09-4.288-2.75-4.839v-1.47C11.249,6.751,12.215,5.022,12.324,2.383z M9.14,9.372
		c1.858,0.464,2.397,2.45,2.488,4.245h-0.693L9.699,12.17L8.13,10.333L6.562,12.17l-1.237,1.447H4.518
		c0.09-1.795,0.629-3.781,2.486-4.245l0.262-0.065V6.779L7.004,6.715C5.117,6.242,4.591,4.201,4.512,2.383h7.12
		c-0.079,1.818-0.604,3.859-2.492,4.332L8.879,6.779v2.527L9.14,9.372z"/>
	<polygon points="9.439,5.234 8,5.234 6.561,5.234 7.281,6.077 8,6.918 8.72,6.077 	"/>
</g>
<g>
</g>
<g>
</g>
<g>
</g>
<g>
</g>
<g>
</g>
<g>
</g>
<g>
</g>
<g>
</g>
<g>
</g>
<g>
</g>
<g>
</g>
<g>
</g>
<g>
</g>
<g>
</g>
<g>
</g>
<g>
</g>
</svg>
