<?xml version="1.0" encoding="utf-8"?>
<!-- Generator: Adobe Illustrator 16.0.4, SVG Export Plug-In . SVG Version: 6.00 Build 0)  -->
<!DOCTYPE svg PUBLIC "-//W3C//DTD SVG 1.1//EN" "http://www.w3.org/Graphics/SVG/1.1/DTD/svg11.dtd">
<svg version="1.1" id="Layer_1" xmlns="http://www.w3.org/2000/svg" xmlns:xlink="http://www.w3.org/1999/xlink" x="0px" y="0px"
	 width="16px" height="16px" viewBox="0 0 16 16" enable-background="new 0 0 16 16" xml:space="preserve">
<symbol  id="New_Symbol_161" viewBox="-7.5 -5.695 15 11.389">
	<path d="M1,5.694c-1.737,0-3.369-0.677-4.596-1.904C-4.171,3.215-4.62,2.549-4.94,1.827L-7.5,4.694v-7h6.25l-2.155,2.413
		c0.175,0.853,0.592,1.639,1.224,2.27C-1.333,3.227-0.202,3.694,1,3.694s2.332-0.468,3.182-1.317C5.032,1.526,5.5,0.397,5.5-0.806
		S5.032-3.137,4.182-3.987c-0.391-0.391-0.391-1.024,0-1.415c0.195-0.195,0.452-0.293,0.708-0.293S5.4-5.597,5.596-5.401
		C6.824-4.173,7.5-2.542,7.5-0.806c0,1.736-0.676,3.368-1.904,4.596C4.369,5.018,2.737,5.694,1,5.694z"/>
</symbol>
<use xlink:href="#New_Symbol_161"  width="15" height="11.389" x="-7.5" y="-5.695" transform="matrix(0.9333 0 0 -0.9333 8 8)" overflow="visible"/>
<g>
</g>
<g>
</g>
<g>
</g>
<g>
</g>
<g>
</g>
<g>
</g>
<g>
</g>
<g>
</g>
<g>
</g>
<g>
</g>
<g>
</g>
<g>
</g>
<g>
</g>
<g>
</g>
<g>
</g>
<g>
</g>
<g>
</g>
<g>
</g>
</svg>
