<?xml version="1.0" encoding="utf-8"?>
<!-- Generator: Adobe Illustrator 16.0.4, SVG Export Plug-In . SVG Version: 6.00 Build 0)  -->
<!DOCTYPE svg PUBLIC "-//W3C//DTD SVG 1.1//EN" "http://www.w3.org/Graphics/SVG/1.1/DTD/svg11.dtd">
<svg version="1.1" id="Layer_1" xmlns="http://www.w3.org/2000/svg" xmlns:xlink="http://www.w3.org/1999/xlink" x="0px" y="0px"
	 width="16px" height="16px" viewBox="0 0 16 16" enable-background="new 0 0 16 16" xml:space="preserve">
<g id="New_Symbol_124">
	<path fill="#FBB03B" d="M15.052,13.168l-2.104-3.979c-0.521-0.969-1.375-2.553-1.896-3.521L8.948,1.761
		c-0.521-0.969-1.375-0.969-1.896,0L4.949,5.685c-0.521,0.97-1.375,2.572-1.896,3.54l-2.104,3.943C0.427,14.139,0.9,15,2,15h4
		c1.1,0,2.9,0,4,0h4C15.1,15,15.573,14.139,15.052,13.168z M9,13H7v-2h2V13z M9,10H7V6h2V10z"/>
</g>
<g>
</g>
<g>
</g>
<g>
</g>
<g>
</g>
<g>
</g>
<g>
</g>
<g>
</g>
<g>
</g>
<g>
</g>
<g>
</g>
<g>
</g>
<g>
</g>
<g>
</g>
<g>
</g>
<g>
</g>
<g>
</g>
</svg>
