<?xml version="1.0" encoding="utf-8"?>
<!-- Generator: Adobe Illustrator 16.0.4, SVG Export Plug-In . SVG Version: 6.00 Build 0)  -->
<!DOCTYPE svg PUBLIC "-//W3C//DTD SVG 1.1//EN" "http://www.w3.org/Graphics/SVG/1.1/DTD/svg11.dtd">
<svg version="1.1" id="Layer_1" xmlns="http://www.w3.org/2000/svg" xmlns:xlink="http://www.w3.org/1999/xlink" x="0px" y="0px"
	 width="16px" height="16px" viewBox="-1.125 0 16 16" enable-background="new -1.125 0 16 16" xml:space="preserve">
<symbol  id="New_Symbol_28" viewBox="-6.875 -6.875 13.75 13.75">
	<g>
		<path d="M0,4.875c2.688,0,4.875-2.187,4.875-4.875S2.689-4.875,0-4.875c-2.688,0-4.875,2.187-4.875,4.875S-2.687,4.875,0,4.875
			 M0,6.875c-3.796,0-6.875-3.079-6.875-6.875c0-3.797,3.08-6.875,6.875-6.875c3.797,0,6.875,3.078,6.875,6.875
			C6.875,3.796,3.797,6.875,0,6.875L0,6.875z"/>
	</g>
	<g>
		<path d="M0.098,0.125c-0.276,0-0.5,0.223-0.5,0.5v2c0,0.276,0.224,0.5,0.5,0.5c0.276,0,0.5-0.224,0.5-0.5v-2
			C0.598,0.348,0.374,0.125,0.098,0.125z"/>
	</g>
	<g>
		<path d="M2.597-1.875c-0.109,0-0.22,0.035-0.312,0.109l-2.5,2C-0.43,0.407-0.465,0.72-0.294,0.936
			c0.173,0.217,0.487,0.25,0.704,0.078l2.5-2c0.214-0.173,0.251-0.485,0.078-0.703C2.889-1.811,2.745-1.875,2.597-1.875z"/>
	</g>
</symbol>
<use xlink:href="#New_Symbol_28"  width="13.75" height="13.75" x="-6.875" y="-6.875" transform="matrix(1 0 0 -1 6.875 8)" overflow="visible"/>
<line fill="none" stroke="#C1272D" stroke-width="2" stroke-linecap="round" stroke-miterlimit="10" x1="1.015" y1="13.86" x2="12.735" y2="2.14"/>
<g>
</g>
<g>
</g>
<g>
</g>
</svg>
