<?xml version="1.0" encoding="utf-8"?>
<!-- Generator: Adobe Illustrator 16.0.4, SVG Export Plug-In . SVG Version: 6.00 Build 0)  -->
<!DOCTYPE svg PUBLIC "-//W3C//DTD SVG 1.1//EN" "http://www.w3.org/Graphics/SVG/1.1/DTD/svg11.dtd">
<svg version="1.1" id="Layer_1" xmlns="http://www.w3.org/2000/svg" xmlns:xlink="http://www.w3.org/1999/xlink" x="0px" y="0px"
	 width="16px" height="16px" viewBox="42 0 16 16" enable-background="new 42 0 16 16" xml:space="preserve">
<path d="M50.001,7.074c0.844,0,1.555,0.579,1.757,1.361c0.253,0.979,0.218,2.054,1.328,2.612c0.984,0.337,1.357,0.763,1.357,1.901
	c0,0.909-0.771,1.875-1.766,1.996c-1.111,0.167-1.978-0.053-2.677-0.456c-0.703,0.403-1.568,0.624-2.679,0.456
	c-0.994-0.121-1.765-1.09-1.765-1.996c0-1.114,0.396-1.585,1.381-1.908c1.21-0.622,1.046-1.715,1.317-2.653
	C48.474,7.628,49.173,7.074,50.001,7.074L50.001,7.074z M55.543,6.397c-0.299-0.263-1.522,0.762-1.908,1.27
	C53.4,7.937,53.256,8.31,53.256,8.72c0,0.825,0.585,1.494,1.307,1.494c0.548,0,1.018-0.384,1.211-0.931
	C56.151,8.299,56.171,6.947,55.543,6.397L55.543,6.397z M44.457,6.397c-0.627,0.549-0.607,1.902-0.229,2.885
	c0.195,0.547,0.663,0.931,1.212,0.931c0.72,0,1.307-0.668,1.307-1.494c0-0.411-0.146-0.784-0.381-1.053
	C45.981,7.16,44.757,6.134,44.457,6.397L44.457,6.397z M51.61,1.009c3.047,0.521,2.833,5.69,0.395,5.273
	c-0.704-0.119-1.226-0.767-1.306-1.538C50.618,3.961,50.438,0.807,51.61,1.009L51.61,1.009z M48.389,1.009
	c1.176-0.202,0.993,2.952,0.913,3.736c-0.08,0.771-0.601,1.418-1.304,1.538C45.558,6.7,45.344,1.53,48.389,1.009z"/>
</svg>
