<?xml version="1.0" encoding="utf-8"?>
<!-- Generator: Adobe Illustrator 16.0.4, SVG Export Plug-In . SVG Version: 6.00 Build 0)  -->
<!DOCTYPE svg PUBLIC "-//W3C//DTD SVG 1.1//EN" "http://www.w3.org/Graphics/SVG/1.1/DTD/svg11.dtd">
<svg version="1.1" id="Layer_1" xmlns="http://www.w3.org/2000/svg" xmlns:xlink="http://www.w3.org/1999/xlink" x="0px" y="0px"
	 width="16px" height="16px" viewBox="0 0 16 16" enable-background="new 0 0 16 16" xml:space="preserve">
<symbol  id="New_Symbol_11" viewBox="-7.726 -7.551 15.453 15.102">
	<path d="M7.287-4.99L4.433-2.136c0.533,0.942,0.841,2.029,0.841,3.187c0,3.584-2.916,6.5-6.5,6.5s-6.5-2.916-6.5-6.5
		s2.916-6.5,6.5-6.5c1.341,0,2.588,0.409,3.623,1.107l2.769-2.77c0.293-0.292,0.677-0.439,1.061-0.439s0.768,0.146,1.061,0.439
		C7.873-6.526,7.873-5.577,7.287-4.99z M-5.727,1.051c0,2.481,2.019,4.5,4.5,4.5c2.482,0,4.5-2.019,4.5-4.5
		c0-2.481-2.018-4.5-4.5-4.5C-3.708-3.449-5.727-1.43-5.727,1.051z"/>
	<polygon points="1.996,2.051 -0.004,2.051 -0.004,4.051 -2.004,4.051 -2.004,2.051 -4.004,2.051 -4.004,0.051 -2.004,0.051 
		-2.004,-1.949 -0.004,-1.949 -0.004,0.051 1.996,0.051 	"/>
</symbol>
<use xlink:href="#New_Symbol_11"  width="15.453" height="15.102" x="-7.726" y="-7.551" transform="matrix(0.906 0 0 -0.906 8 8)" overflow="visible"/>
<g>
</g>
<g>
</g>
<g>
</g>
<g>
</g>
<g>
</g>
<g>
</g>
<g>
</g>
<g>
</g>
<g>
</g>
<g>
</g>
<g>
</g>
<g>
</g>
<g>
</g>
<g>
</g>
<g>
</g>
<g>
</g>
<g>
</g>
<g>
</g>
</svg>
