<?xml version="1.0" encoding="utf-8"?>
<!-- Generator: Adobe Illustrator 16.0.4, SVG Export Plug-In . SVG Version: 6.00 Build 0)  -->
<!DOCTYPE svg PUBLIC "-//W3C//DTD SVG 1.1//EN" "http://www.w3.org/Graphics/SVG/1.1/DTD/svg11.dtd">
<svg version="1.1" id="Layer_1" xmlns="http://www.w3.org/2000/svg" xmlns:xlink="http://www.w3.org/1999/xlink" x="0px" y="0px"
	 width="134.355px" height="30px" viewBox="0 0 134.355 30" enable-background="new 0 0 134.355 30" xml:space="preserve">
<g>
	<g>
		<path fill="#333333" d="M0,9.322V1.897c0-0.633,0.142-1.108,0.428-1.422C0.71,0.156,1.085,0,1.546,0
			c0.485,0,0.871,0.156,1.156,0.476C2.985,0.79,3.127,1.265,3.127,1.897v7.592c0,0.863,0.098,1.586,0.292,2.164
			C3.611,12.233,3.952,12.682,4.446,13c0.489,0.322,1.178,0.482,2.064,0.482c1.219,0,2.083-0.326,2.591-0.977
			c0.502-0.648,0.757-1.632,0.757-2.953V1.897c0-0.641,0.14-1.114,0.42-1.429C10.56,0.154,10.935,0,11.404,0
			c0.471,0,0.852,0.154,1.143,0.469c0.292,0.315,0.439,0.787,0.439,1.428v7.426c0,1.205-0.117,2.212-0.352,3.019
			c-0.235,0.809-0.681,1.52-1.333,2.129c-0.562,0.522-1.216,0.9-1.962,1.137c-0.744,0.239-1.612,0.359-2.608,0.359
			c-1.187,0-2.211-0.127-3.065-0.385c-0.858-0.255-1.556-0.652-2.096-1.19c-0.541-0.538-0.938-1.226-1.192-2.065
			C0.125,11.491,0,10.486,0,9.322z"/>
		<path fill="#333333" d="M18.778,5.867v0.348c0.506-0.67,1.059-1.157,1.66-1.471c0.6-0.313,1.291-0.468,2.069-0.468
			c0.76,0,1.436,0.165,2.034,0.494c0.595,0.333,1.042,0.799,1.335,1.403c0.19,0.351,0.312,0.73,0.369,1.135
			c0.056,0.407,0.085,0.928,0.085,1.561v5.347c0,0.577-0.131,1.012-0.396,1.307c-0.264,0.295-0.604,0.443-1.025,0.443
			c-0.428,0-0.776-0.153-1.042-0.453c-0.268-0.302-0.402-0.733-0.402-1.298v-4.79c0-0.948-0.131-1.671-0.394-2.175
			c-0.264-0.503-0.787-0.754-1.575-0.754c-0.513,0-0.981,0.154-1.401,0.459c-0.42,0.304-0.73,0.727-0.928,1.258
			c-0.139,0.429-0.208,1.229-0.208,2.4v3.602c0,0.586-0.136,1.022-0.407,1.313c-0.27,0.291-0.618,0.438-1.047,0.438
			c-0.416,0-0.755-0.153-1.02-0.453c-0.268-0.302-0.401-0.733-0.401-1.298V5.91c0-0.55,0.119-0.958,0.358-1.23
			c0.235-0.268,0.563-0.404,0.98-0.404c0.251,0,0.479,0.059,0.683,0.18c0.203,0.12,0.367,0.297,0.49,0.536
			C18.716,5.232,18.778,5.522,18.778,5.867z"/>
		<path fill="#333333" d="M30.648,2.937c-0.401,0-0.744-0.12-1.027-0.366c-0.287-0.249-0.427-0.594-0.427-1.042
			c0-0.408,0.145-0.745,0.436-1.008c0.291-0.263,0.63-0.395,1.019-0.395c0.37,0,0.702,0.12,0.988,0.359
			c0.29,0.24,0.434,0.587,0.434,1.044c0,0.442-0.144,0.787-0.423,1.036C31.369,2.814,31.033,2.937,30.648,2.937z M32.072,5.91v8.306
			c0,0.577-0.139,1.012-0.411,1.307c-0.277,0.295-0.624,0.443-1.043,0.443c-0.42,0-0.764-0.153-1.027-0.453
			c-0.263-0.302-0.394-0.733-0.394-1.298V5.994c0-0.569,0.131-0.998,0.394-1.284c0.263-0.291,0.607-0.433,1.027-0.433
			s0.767,0.143,1.043,0.433C31.933,4.997,32.072,5.397,32.072,5.91z"/>
		<path fill="#333333" d="M34.809,4.53h0.684V3.667c0-0.901,0.113-1.613,0.344-2.145c0.226-0.531,0.613-0.914,1.158-1.159
			C37.537,0.123,38.284,0,39.233,0c1.676,0,2.517,0.411,2.517,1.233c0,0.268-0.088,0.494-0.264,0.682
			c-0.176,0.189-0.383,0.287-0.624,0.287c-0.111,0-0.305-0.022-0.577-0.064c-0.273-0.042-0.507-0.064-0.697-0.064
			c-0.517,0-0.85,0.155-0.998,0.46c-0.147,0.304-0.221,0.74-0.221,1.312V4.53h0.706c1.095,0,1.641,0.329,1.641,0.988
			c0,0.471-0.146,0.771-0.436,0.895c-0.292,0.128-0.692,0.19-1.205,0.19H38.37v7.613c0,0.571-0.137,1.004-0.409,1.304
			c-0.268,0.296-0.617,0.447-1.046,0.447c-0.407,0-0.747-0.15-1.019-0.447c-0.268-0.3-0.404-0.732-0.404-1.304V6.603h-0.79
			c-0.429,0-0.757-0.095-0.99-0.289c-0.233-0.194-0.35-0.445-0.35-0.755C33.363,4.871,33.845,4.53,34.809,4.53z"/>
		<path fill="#333333" d="M43.938,2.937c-0.398,0-0.742-0.12-1.025-0.366c-0.285-0.249-0.426-0.594-0.426-1.042
			c0-0.408,0.146-0.745,0.437-1.008c0.29-0.263,0.63-0.395,1.014-0.395c0.373,0,0.703,0.12,0.991,0.359
			c0.286,0.24,0.43,0.587,0.43,1.044c0,0.442-0.139,0.787-0.42,1.036C44.657,2.814,44.324,2.937,43.938,2.937z M45.359,5.91v8.306
			c0,0.577-0.133,1.012-0.41,1.307c-0.273,0.295-0.62,0.443-1.04,0.443c-0.424,0-0.763-0.153-1.026-0.453
			c-0.263-0.302-0.395-0.733-0.395-1.298V5.994c0-0.569,0.132-0.998,0.395-1.284c0.263-0.291,0.603-0.433,1.026-0.433
			c0.421,0,0.768,0.143,1.04,0.433C45.226,4.997,45.359,5.397,45.359,5.91z"/>
		<path fill="#333333" d="M56.358,10.828h-5.624c0.003,0.651,0.136,1.229,0.394,1.726c0.254,0.5,0.595,0.874,1.02,1.127
			s0.893,0.377,1.406,0.377c0.345,0,0.658-0.039,0.945-0.12c0.281-0.08,0.557-0.205,0.824-0.38c0.268-0.17,0.513-0.353,0.74-0.552
			c0.224-0.196,0.516-0.462,0.872-0.798c0.148-0.129,0.36-0.189,0.633-0.189c0.295,0,0.535,0.08,0.715,0.24
			c0.184,0.162,0.273,0.391,0.273,0.684c0,0.263-0.103,0.565-0.307,0.911c-0.203,0.349-0.509,0.684-0.921,1.002
			c-0.41,0.319-0.925,0.584-1.547,0.797c-0.624,0.208-1.337,0.314-2.145,0.314c-1.848,0-3.283-0.527-4.307-1.579
			c-1.025-1.053-1.538-2.484-1.538-4.287c0-0.85,0.13-1.639,0.379-2.364c0.253-0.727,0.623-1.351,1.109-1.87
			c0.485-0.521,1.08-0.919,1.791-1.198c0.707-0.276,1.495-0.413,2.359-0.413c1.122,0,2.085,0.235,2.889,0.71
			c0.804,0.475,1.407,1.087,1.808,1.839c0.401,0.748,0.6,1.516,0.6,2.296c0,0.722-0.209,1.19-0.624,1.406
			C57.692,10.719,57.107,10.828,56.358,10.828z M50.733,9.193h5.213c-0.07-0.982-0.335-1.715-0.796-2.206
			c-0.46-0.489-1.064-0.732-1.817-0.732c-0.715,0-1.304,0.247-1.763,0.741C51.11,7.493,50.83,8.225,50.733,9.193z"/>
		<path fill="#333333" d="M69.027,14.322v-0.282c-0.389,0.439-0.77,0.802-1.143,1.079c-0.377,0.276-0.786,0.488-1.224,0.632
			c-0.439,0.143-0.916,0.215-1.439,0.215c-0.688,0-1.323-0.146-1.909-0.438c-0.587-0.291-1.094-0.707-1.521-1.249
			c-0.429-0.541-0.754-1.178-0.977-1.908c-0.222-0.73-0.33-1.519-0.33-2.369c0-1.795,0.439-3.199,1.315-4.201
			c0.877-1.006,2.032-1.504,3.465-1.504c0.828,0,1.526,0.141,2.095,0.425c0.571,0.283,1.125,0.72,1.666,1.31V1.792
			c0-0.591,0.118-1.038,0.354-1.339C69.615,0.154,69.948,0,70.385,0c0.434,0,0.77,0.139,1.004,0.417
			c0.234,0.278,0.352,0.686,0.352,1.226v12.679c0,0.55-0.124,0.96-0.379,1.233c-0.251,0.272-0.577,0.411-0.979,0.411
			c-0.393,0-0.719-0.142-0.974-0.428C69.155,15.256,69.027,14.85,69.027,14.322z M63.372,10.1c0,0.779,0.122,1.444,0.362,1.992
			c0.244,0.546,0.575,0.958,0.995,1.236c0.42,0.277,0.881,0.418,1.38,0.418c0.505,0,0.967-0.132,1.384-0.395
			c0.418-0.264,0.751-0.669,1-1.215c0.25-0.542,0.376-1.221,0.376-2.036c0-0.763-0.127-1.421-0.376-1.975
			c-0.25-0.55-0.586-0.969-1.012-1.262c-0.425-0.293-0.889-0.439-1.395-0.439c-0.527,0-0.996,0.149-1.409,0.45
			c-0.416,0.297-0.736,0.725-0.964,1.284C63.484,8.714,63.372,9.364,63.372,10.1z"/>
		<path fill="#333333" d="M77.116,2.055l3.494,10.352L84.121,1.98c0.181-0.55,0.317-0.93,0.41-1.143
			c0.091-0.215,0.239-0.407,0.451-0.581C85.192,0.085,85.479,0,85.847,0c0.267,0,0.512,0.066,0.74,0.198
			c0.23,0.134,0.41,0.312,0.537,0.533c0.131,0.221,0.195,0.446,0.195,0.668c0,0.156-0.021,0.322-0.062,0.5
			c-0.044,0.181-0.095,0.356-0.159,0.527c-0.064,0.174-0.127,0.35-0.188,0.533l-3.741,10.088c-0.132,0.388-0.269,0.754-0.396,1.102
			c-0.137,0.347-0.289,0.654-0.465,0.917c-0.174,0.264-0.409,0.479-0.7,0.646c-0.293,0.171-0.647,0.254-1.069,0.254
			c-0.424,0-0.776-0.081-1.069-0.248s-0.527-0.383-0.706-0.653c-0.18-0.271-0.335-0.578-0.468-0.922
			c-0.135-0.344-0.268-0.709-0.402-1.097L74.218,3.042c-0.062-0.179-0.128-0.359-0.195-0.535c-0.065-0.175-0.122-0.364-0.168-0.567
			c-0.045-0.204-0.068-0.379-0.068-0.518c0-0.359,0.144-0.683,0.431-0.979C74.508,0.147,74.868,0,75.303,0
			c0.532,0,0.911,0.164,1.132,0.491C76.655,0.815,76.883,1.34,77.116,2.055z"/>
		<path fill="#333333" d="M90.636,2.937c-0.396,0-0.739-0.12-1.025-0.366c-0.284-0.249-0.425-0.594-0.425-1.042
			c0-0.408,0.146-0.745,0.438-1.008c0.291-0.263,0.627-0.395,1.014-0.395c0.374,0,0.702,0.12,0.989,0.359
			c0.29,0.24,0.434,0.587,0.434,1.044c0,0.442-0.141,0.787-0.422,1.036C91.358,2.814,91.023,2.937,90.636,2.937z M92.06,5.91v8.306
			c0,0.577-0.138,1.012-0.41,1.307c-0.274,0.295-0.621,0.443-1.044,0.443c-0.42,0-0.764-0.153-1.027-0.453
			c-0.264-0.302-0.392-0.733-0.392-1.298V5.994c0-0.569,0.129-0.998,0.392-1.284c0.264-0.291,0.608-0.433,1.027-0.433
			c0.423,0,0.77,0.143,1.044,0.433C91.922,4.997,92.06,5.397,92.06,5.91z"/>
		<path fill="#333333" d="M103.054,10.828H97.43c0.007,0.651,0.142,1.229,0.396,1.726c0.255,0.5,0.597,0.874,1.021,1.127
			c0.426,0.253,0.895,0.377,1.406,0.377c0.344,0,0.66-0.039,0.945-0.12c0.281-0.08,0.559-0.205,0.826-0.38
			c0.266-0.17,0.51-0.353,0.734-0.552c0.228-0.196,0.52-0.462,0.877-0.798c0.147-0.129,0.355-0.189,0.63-0.189
			c0.295,0,0.537,0.08,0.719,0.24c0.179,0.162,0.271,0.391,0.271,0.684c0,0.263-0.099,0.565-0.303,0.911
			c-0.203,0.349-0.513,0.684-0.924,1.002c-0.411,0.319-0.924,0.584-1.547,0.797c-0.624,0.208-1.335,0.314-2.144,0.314
			c-1.848,0-3.283-0.527-4.309-1.579c-1.025-1.053-1.535-2.484-1.535-4.287c0-0.85,0.124-1.639,0.378-2.364
			c0.251-0.727,0.621-1.351,1.107-1.87c0.482-0.521,1.079-0.919,1.79-1.198c0.709-0.276,1.497-0.413,2.358-0.413
			c1.124,0,2.086,0.235,2.893,0.71c0.801,0.475,1.406,1.087,1.805,1.839c0.4,0.748,0.6,1.516,0.6,2.296
			c0,0.722-0.205,1.19-0.62,1.406C104.391,10.719,103.807,10.828,103.054,10.828z M97.43,9.193h5.213
			c-0.067-0.982-0.333-1.715-0.792-2.206c-0.463-0.489-1.066-0.732-1.816-0.732c-0.718,0-1.307,0.247-1.764,0.741
			C97.808,7.493,97.529,8.225,97.43,9.193z"/>
		<path fill="#333333" d="M109.352,6.067l1.875,6.422l1.705-5.97c0.186-0.624,0.318-1.05,0.406-1.281
			c0.089-0.226,0.256-0.444,0.495-0.651c0.241-0.208,0.577-0.312,0.996-0.312c0.432,0,0.764,0.104,1.006,0.312
			c0.243,0.207,0.412,0.429,0.513,0.674c0.096,0.239,0.234,0.663,0.41,1.257l1.704,5.97l1.899-6.422
			c0.123-0.464,0.228-0.8,0.303-1.005c0.078-0.206,0.208-0.392,0.392-0.549c0.184-0.156,0.447-0.237,0.788-0.237
			c0.344,0,0.643,0.12,0.896,0.36c0.255,0.236,0.381,0.517,0.381,0.839c0,0.297-0.11,0.744-0.327,1.34l-2.348,6.888
			c-0.202,0.583-0.365,1.001-0.476,1.261c-0.11,0.262-0.289,0.493-0.534,0.696c-0.241,0.203-0.57,0.305-0.994,0.305
			c-0.436,0-0.776-0.108-1.028-0.328c-0.245-0.218-0.431-0.483-0.552-0.799c-0.12-0.314-0.248-0.725-0.39-1.233l-1.643-5.6
			l-1.589,5.6c-0.212,0.782-0.438,1.37-0.687,1.767c-0.244,0.396-0.679,0.593-1.297,0.593c-0.315,0-0.584-0.062-0.803-0.182
			c-0.224-0.125-0.406-0.301-0.554-0.527c-0.146-0.23-0.28-0.499-0.39-0.812c-0.111-0.315-0.198-0.56-0.264-0.742l-2.328-6.888
			c-0.232-0.647-0.347-1.094-0.347-1.34c0-0.309,0.122-0.586,0.37-0.831c0.245-0.244,0.546-0.368,0.907-0.368
			c0.476,0,0.798,0.136,0.969,0.405C108.983,4.952,109.165,5.413,109.352,6.067z"/>
		<path fill="#333333" d="M134.355,12.208c0,0.792-0.191,1.47-0.577,2.037c-0.389,0.564-0.961,0.993-1.715,1.284
			c-0.754,0.291-1.672,0.438-2.754,0.438c-1.032,0-1.914-0.158-2.649-0.476c-0.739-0.314-1.284-0.709-1.636-1.185
			c-0.352-0.47-0.527-0.948-0.527-1.424c0-0.318,0.113-0.586,0.339-0.812c0.225-0.226,0.511-0.337,0.854-0.337
			c0.301,0,0.533,0.074,0.693,0.221c0.163,0.148,0.315,0.355,0.464,0.622c0.294,0.513,0.646,0.894,1.058,1.146
			c0.41,0.255,0.972,0.379,1.683,0.379c0.572,0,1.046-0.126,1.413-0.382c0.371-0.257,0.557-0.55,0.557-0.879
			c0-0.507-0.194-0.876-0.577-1.107c-0.381-0.231-1.009-0.452-1.888-0.665c-0.992-0.245-1.798-0.5-2.419-0.773
			c-0.623-0.268-1.118-0.626-1.49-1.069c-0.369-0.443-0.56-0.985-0.56-1.63c0-0.577,0.174-1.123,0.518-1.635
			c0.347-0.513,0.851-0.921,1.522-1.226c0.671-0.304,1.479-0.458,2.429-0.458c0.742,0,1.41,0.078,2.003,0.231
			c0.596,0.157,1.089,0.364,1.487,0.624c0.396,0.259,0.698,0.546,0.904,0.864c0.209,0.313,0.312,0.623,0.312,0.927
			c0,0.329-0.109,0.601-0.334,0.809c-0.219,0.213-0.533,0.319-0.94,0.319c-0.294,0-0.548-0.087-0.754-0.254
			c-0.207-0.17-0.445-0.419-0.711-0.757c-0.217-0.282-0.472-0.508-0.766-0.675c-0.295-0.171-0.699-0.253-1.201-0.253
			c-0.522,0-0.954,0.108-1.295,0.33c-0.346,0.221-0.518,0.497-0.518,0.829c0,0.3,0.126,0.547,0.38,0.741
			c0.251,0.194,0.591,0.353,1.022,0.479c0.425,0.127,1.017,0.281,1.767,0.465c0.893,0.218,1.62,0.476,2.188,0.78
			c0.562,0.302,0.993,0.659,1.285,1.069C134.21,11.213,134.355,11.681,134.355,12.208z"/>
	</g>
	<path fill="#1B96B7" d="M39.675,22.098c0,1.455-1.177,2.637-2.633,2.637c-1.454,0-2.632-1.182-2.632-2.637s1.178-2.632,2.632-2.632
		C38.499,19.466,39.675,20.643,39.675,22.098z"/>
	<path fill="#1B96B7" d="M46.699,22.098c0,1.455-1.179,2.637-2.631,2.637c-1.457,0-2.634-1.182-2.634-2.637s1.179-2.632,2.634-2.632
		C45.52,19.466,46.699,20.643,46.699,22.098z"/>
	<path fill="#1B96B7" d="M53.972,22.098c0,1.455-1.178,2.637-2.633,2.637c-1.454,0-2.632-1.182-2.632-2.637s1.179-2.632,2.632-2.632
		C52.794,19.466,53.972,20.643,53.972,22.098z"/>
	<path fill="#1B96B7" d="M114.164,22.098c0,1.455-1.178,2.637-2.632,2.637c-1.453,0-2.633-1.182-2.633-2.637s1.18-2.632,2.633-2.632
		C112.986,19.466,114.164,20.643,114.164,22.098z"/>
	<path fill="#1B96B7" d="M121.441,22.098c0,1.455-1.182,2.637-2.635,2.637c-1.456,0-2.633-1.182-2.633-2.637
		s1.176-2.632,2.633-2.632C120.26,19.466,121.441,20.643,121.441,22.098z"/>
	<circle fill="#1B96B7" cx="75.292" cy="24.734" r="5.266"/>
	<circle fill="#1B96B7" cx="85.825" cy="24.733" r="5.266"/>
</g>
</svg>
