<?xml version="1.0" encoding="utf-8"?>
<!-- Generator: Adobe Illustrator 16.0.4, SVG Export Plug-In . SVG Version: 6.00 Build 0)  -->
<!DOCTYPE svg PUBLIC "-//W3C//DTD SVG 1.1//EN" "http://www.w3.org/Graphics/SVG/1.1/DTD/svg11.dtd">
<svg version="1.1" id="Layer_1" xmlns="http://www.w3.org/2000/svg" xmlns:xlink="http://www.w3.org/1999/xlink" x="0px" y="0px"
	 width="15.57px" height="15.957px" viewBox="0 0 15.57 15.957" enable-background="new 0 0 15.57 15.957" xml:space="preserve">
<path fill="#1B96B7" d="M15.259,12.168c-0.468-0.729-2.037-1.182-3.591-1.828c-1.554-0.648-1.922-0.873-1.922-0.873l-0.015-1.49
	c0,0,0.582-0.447,0.764-1.85c0.363,0.105,0.746-0.543,0.766-0.885c0.021-0.328-0.05-1.242-0.494-1.15
	c0.091-0.688,0.156-1.305,0.125-1.633C10.777,1.262,9.597,0,7.785,0S4.793,1.262,4.678,2.459C4.646,2.787,4.712,3.404,4.802,4.092
	C4.359,4,4.289,4.914,4.308,5.242C4.33,5.584,4.71,6.232,5.076,6.127c0.18,1.402,0.762,1.85,0.762,1.85l-0.014,1.49
	c0,0-0.369,0.225-1.922,0.873c-1.555,0.646-3.123,1.1-3.591,1.828c-0.419,0.652-0.293,3.789-0.293,3.789h7.767h7.768
	C15.552,15.957,15.677,12.82,15.259,12.168z"/>
</svg>
