<?xml version="1.0" encoding="utf-8"?>
<!-- Generator: Adobe Illustrator 16.0.4, SVG Export Plug-In . SVG Version: 6.00 Build 0)  -->
<!DOCTYPE svg PUBLIC "-//W3C//DTD SVG 1.1//EN" "http://www.w3.org/Graphics/SVG/1.1/DTD/svg11.dtd">
<svg version="1.1" id="Layer_1" xmlns="http://www.w3.org/2000/svg" xmlns:xlink="http://www.w3.org/1999/xlink" x="0px" y="0px"
	 width="14.527px" height="13.965px" viewBox="0 0 14.527 13.965" enable-background="new 0 0 14.527 13.965" xml:space="preserve">
<path fill="#D74515" d="M14.315,12.133l-2.104-3.979c-0.521-0.969-1.375-2.553-1.896-3.521L8.212,0.727
	c-0.521-0.969-1.375-0.969-1.896,0L4.213,4.651C3.691,5.62,2.838,7.221,2.316,8.19l-2.104,3.943
	c-0.521,0.969-0.048,1.832,1.052,1.832h4c1.1,0,2.9,0,4,0h4C14.363,13.965,14.837,13.102,14.315,12.133z M8.264,11.965h-2v-2h2
	V11.965z M8.264,8.965h-2v-4h2V8.965z"/>
</svg>
