<?xml version="1.0" encoding="utf-8"?>
<!-- Generator: Adobe Illustrator 16.0.4, SVG Export Plug-In . SVG Version: 6.00 Build 0)  -->
<!DOCTYPE svg PUBLIC "-//W3C//DTD SVG 1.1//EN" "http://www.w3.org/Graphics/SVG/1.1/DTD/svg11.dtd">
<svg version="1.1" id="Layer_1" xmlns="http://www.w3.org/2000/svg" xmlns:xlink="http://www.w3.org/1999/xlink" x="0px" y="0px"
	 width="16px" height="16px" viewBox="0 0 16 16" enable-background="new 0 0 16 16" xml:space="preserve">
<g>
	<linearGradient id="SVGID_1_" gradientUnits="userSpaceOnUse" x1="8.0005" y1="16" x2="8.0005" y2="4.882812e-04">
		<stop  offset="0.25" style="stop-color:#FFFFFF"/>
		<stop  offset="0.75" style="stop-color:#333333"/>
	</linearGradient>
	<path fill="url(#SVGID_1_)" d="M8,0C5.861,0,3.854,0.832,2.344,2.344C0.832,3.855,0,5.863,0,8s0.832,4.145,2.344,5.656
		S5.863,16,8,16s4.145-0.832,5.656-2.344C15.168,12.146,16,10.139,16,8c0-2.137-0.832-4.145-2.344-5.656S10.137,0,8,0L8,0z"/>
	<g>
		<linearGradient id="SVGID_2_" gradientUnits="userSpaceOnUse" x1="7.9995" y1="1.5" x2="7.9995" y2="14.5005">
			<stop  offset="0.0061" style="stop-color:#333333"/>
			<stop  offset="1" style="stop-color:#000000"/>
		</linearGradient>
		<path fill="url(#SVGID_2_)" d="M8.001,14.5c-1.736,0-3.369-0.677-4.597-1.904C2.176,11.367,1.5,9.735,1.5,8
			c0-1.736,0.676-3.368,1.904-4.595C4.631,2.176,6.264,1.5,8,1.5s3.368,0.676,4.596,1.904C13.824,4.631,14.5,6.264,14.5,8
			s-0.676,3.368-1.904,4.596C11.368,13.824,9.736,14.5,8.001,14.5z"/>
		<path fill="#4D4D4D" d="M8,2c1.603,0,3.109,0.624,4.242,1.758C13.376,4.891,14,6.397,14,8s-0.624,3.109-1.758,4.242
			C11.109,13.376,9.604,14,8.001,14s-3.109-0.624-4.243-1.758C2.625,11.108,2,9.602,2,7.999c0-1.602,0.624-3.108,1.758-4.241
			C4.891,2.624,6.397,2,8,2 M8,1C6.208,1,4.417,1.684,3.051,3.051c-2.734,2.732-2.734,7.164,0,9.898C4.418,14.316,6.209,15,8.001,15
			c1.791,0,3.582-0.684,4.948-2.051c2.734-2.732,2.734-7.166,0-9.898C11.583,1.684,9.791,1,8,1L8,1z"/>
		<path d="M8,1c1.791,0,3.583,0.684,4.949,2.051c2.734,2.732,2.734,7.166,0,9.898C11.583,14.316,9.792,15,8.001,15
			c-1.792,0-3.583-0.684-4.95-2.051c-2.734-2.734-2.734-7.166,0-9.898C4.417,1.684,6.208,1,8,1 M8,0
			C5.863,0,3.854,0.833,2.343,2.344C0.833,3.854,0,5.862,0,7.999s0.833,4.146,2.344,5.657S5.864,16,8.001,16
			s4.146-0.832,5.655-2.344C15.168,12.146,16,10.138,16,8c0-2.137-0.832-4.146-2.344-5.657C12.146,0.833,10.138,0,8,0L8,0z"/>
	</g>
	
		<rect x="3.424" y="8.171" transform="matrix(-0.7071 0.7071 -0.7071 -0.7071 20.1057 9.1622)" fill="#4D4D4D" width="9.463" height="1.149"/>
	
		<rect x="3.422" y="8.173" transform="matrix(0.7071 0.7071 -0.7071 0.7071 8.574 -3.2054)" fill="#4D4D4D" width="9.469" height="1.148"/>
	
		<rect x="3.269" y="7.351" transform="matrix(-0.7071 0.7071 -0.7071 -0.7071 19.2646 7.8719)" fill="#FFFFFF" width="9.466" height="1.149"/>
	
		<rect x="3.268" y="7.353" transform="matrix(0.7071 0.7071 -0.7071 0.7071 7.9488 -3.3365)" fill="#FFFFFF" width="9.469" height="1.148"/>
</g>
</svg>
