<?xml version="1.0" encoding="utf-8"?>
<!-- Generator: Adobe Illustrator 16.0.4, SVG Export Plug-In . SVG Version: 6.00 Build 0)  -->
<!DOCTYPE svg PUBLIC "-//W3C//DTD SVG 1.1//EN" "http://www.w3.org/Graphics/SVG/1.1/DTD/svg11.dtd">
<svg version="1.1" id="Layer_1" xmlns="http://www.w3.org/2000/svg" xmlns:xlink="http://www.w3.org/1999/xlink" x="0px" y="0px"
	 width="16px" height="16px" viewBox="0 0 16 16" enable-background="new 0 0 16 16" xml:space="preserve">
<symbol  id="New_Symbol_215" viewBox="-7.662 -7.661 15.324 15.322">
	<path fill="#C1272D" d="M5.418,5.418c-2.992,2.99-7.844,2.99-10.835,0c-2.993-2.991-2.993-7.844,0-10.835
		c2.992-2.993,7.844-2.991,10.835,0C8.41-2.428,8.41,2.427,5.418,5.418z M-0.542,5.011h1.588c0.477,0,0.547-0.277,0.547-0.444
		c0-0.066,0-0.066-0.004-0.144L1.578,4.256L1.252-1.549c-0.047-0.447-0.24-0.533-0.561-0.533h-0.846
		c-0.32,0-0.515,0.086-0.561,0.521l-0.338,5.985c-0.005,0.079-0.005,0.079-0.005,0.144C-1.059,4.734-0.991,5.011-0.542,5.011z
		 M0.275-6.164c-0.833,0-1.512,0.672-1.512,1.498c0,0.848,0.664,1.51,1.512,1.51c0.826,0,1.498-0.676,1.498-1.51
		C1.772-5.479,1.086-6.164,0.275-6.164z"/>
</symbol>
<use xlink:href="#New_Symbol_215"  width="15.324" height="15.322" id="XMLID_1_" x="-7.662" y="-7.661" transform="matrix(0.9136 0 0 -0.9137 8 8)" overflow="visible"/>
<g>
</g>
<g>
</g>
<g>
</g>
<g>
</g>
<g>
</g>
<g>
</g>
<g>
</g>
<g>
</g>
<g>
</g>
<g>
</g>
<g>
</g>
<g>
</g>
<g>
</g>
<g>
</g>
<g>
</g>
<g>
</g>
<g>
</g>
<g>
</g>
</svg>
