<?xml version="1.0" encoding="utf-8"?>
<!-- Generator: Adobe Illustrator 16.0.4, SVG Export Plug-In . SVG Version: 6.00 Build 0)  -->
<!DOCTYPE svg PUBLIC "-//W3C//DTD SVG 1.1//EN" "http://www.w3.org/Graphics/SVG/1.1/DTD/svg11.dtd">
<svg version="1.1" id="Layer_1" xmlns="http://www.w3.org/2000/svg" xmlns:xlink="http://www.w3.org/1999/xlink" x="0px" y="0px"
	 width="16px" height="16px" viewBox="0 0 16 16" enable-background="new 0 0 16 16" xml:space="preserve">
<symbol  id="New_Symbol_236" viewBox="-7.364 -3.364 14.729 6.728">
	<polygon points="7.364,0 4,3.364 4,1 -4,1 -4,3.364 -7.364,0 -4,-3.364 -4,-1 4,-1 4,-3.364 	"/>
</symbol>
<line fill="none" stroke="#000000" stroke-miterlimit="10" x1="1.5" y1="0" x2="1.5" y2="16"/>
<line fill="none" stroke="#000000" stroke-miterlimit="10" x1="14.583" y1="0" x2="14.583" y2="16"/>
<line fill="none" stroke="#000000" stroke-miterlimit="10" x1="0" y1="1.5" x2="16" y2="1.5"/>
<line fill="none" stroke="#000000" stroke-miterlimit="10" x1="3" y1="6.5" x2="8.917" y2="6.5"/>
<line fill="none" stroke="#000000" stroke-miterlimit="10" x1="3" y1="8.583" x2="8.917" y2="8.583"/>
<line fill="none" stroke="#000000" stroke-miterlimit="10" x1="0" y1="14.5" x2="16" y2="14.5"/>
<use xlink:href="#New_Symbol_236"  width="14.729" height="6.728" x="-7.364" y="-3.364" transform="matrix(-2.530376e-08 -0.5789 -0.5789 2.530376e-08 11.5 8)" overflow="visible"/>
<g>
</g>
<g>
</g>
<g>
</g>
</svg>
