<?xml version="1.0" encoding="utf-8"?>
<!-- Generator: Adobe Illustrator 16.0.4, SVG Export Plug-In . SVG Version: 6.00 Build 0)  -->
<!DOCTYPE svg PUBLIC "-//W3C//DTD SVG 1.1//EN" "http://www.w3.org/Graphics/SVG/1.1/DTD/svg11.dtd">
<svg version="1.1" id="Layer_1" xmlns="http://www.w3.org/2000/svg" xmlns:xlink="http://www.w3.org/1999/xlink" x="0px" y="0px"
	 width="16px" height="16px" viewBox="-0.5 0 16 16" enable-background="new -0.5 0 16 16" xml:space="preserve">
<symbol  id="New_Symbol_83" viewBox="-7.5 -7.499 14.999 14.998">
	<g>
		<g>
			<path d="M6.666,1.459h-2.09C4.452,1.86,4.276,2.238,4.063,2.59L5.45,3.98c0.327,0.322,0.327,0.852,0,1.178L4.861,5.744
				c-0.326,0.324-0.854,0.323-1.178,0l-1.41-1.408C1.893,4.554,1.479,4.722,1.041,4.834v1.832c0,0.459-0.371,0.833-0.833,0.833
				h-0.833c-0.459,0-0.832-0.374-0.832-0.833V4.834c-0.479-0.12-0.928-0.312-1.34-0.562l-1.179,1.179
				c-0.325,0.323-0.854,0.325-1.179,0l-0.591-0.589c-0.325-0.324-0.321-0.854,0.002-1.181l1.201-1.2
				c-0.254-0.443-0.444-0.928-0.553-1.438h-1.569c-0.46,0-0.834-0.373-0.834-0.834v-0.834c0-0.458,0.374-0.831,0.834-0.831h1.675
				c0.151-0.502,0.381-0.966,0.674-1.387L-5.45-3.976c-0.326-0.327-0.326-0.855-0.002-1.182l0.588-0.588
				c0.327-0.323,0.856-0.323,1.18,0.002l1.266,1.266c0.427-0.213,0.889-0.365,1.376-0.444v-1.743c0-0.46,0.373-0.832,0.833-0.834
				h0.833c0.459,0.002,0.833,0.374,0.833,0.834v1.958c0.42,0.148,0.818,0.347,1.178,0.6l1.341-1.342
				c0.326-0.325,0.852-0.325,1.179,0l0.59,0.589c0.327,0.324,0.327,0.854-0.002,1.18l-1.47,1.474c0.18,0.364,0.32,0.754,0.407,1.166
				h1.984c0.462,0,0.834,0.371,0.835,0.835v0.832C7.5,1.085,7.126,1.459,6.666,1.459z M-0.208-2.081
				c-1.15,0-2.083,0.929-2.083,2.082c0,1.151,0.933,2.082,2.083,2.082c1.151,0,2.084-0.931,2.084-2.082
				C1.876-1.152,0.944-2.081-0.208-2.081z"/>
		</g>
	</g>
</symbol>
<use xlink:href="#New_Symbol_83"  width="14.999" height="14.998" x="-7.5" y="-7.499" transform="matrix(0.9334 0 0 -0.9334 7.5 8)" overflow="visible"/>
<g>
</g>
<g>
</g>
<g>
</g>
</svg>
