<?xml version="1.0" encoding="utf-8"?>
<!-- Generator: Adobe Illustrator 16.0.4, SVG Export Plug-In . SVG Version: 6.00 Build 0)  -->
<!DOCTYPE svg PUBLIC "-//W3C//DTD SVG 1.1//EN" "http://www.w3.org/Graphics/SVG/1.1/DTD/svg11.dtd">
<svg version="1.1" id="Layer_1" xmlns="http://www.w3.org/2000/svg" xmlns:xlink="http://www.w3.org/1999/xlink" x="0px" y="0px"
	 width="13px" height="13px" viewBox="0 0 13 13" enable-background="new 0 0 13 13" xml:space="preserve">
<path fill="#1B96B7" d="M6.5,0C2.909,0,0,2.91,0,6.5S2.909,13,6.5,13c3.589,0,6.5-2.91,6.5-6.5S10.089,0,6.5,0z M9.59,7.249
	l-4.178,2.87C5.225,10.248,5.01,10.31,4.8,10.31c-0.346,0-0.685-0.164-0.895-0.47C3.566,9.347,3.691,8.672,4.185,8.333l2.809-1.93
	L4.229,4.695C3.72,4.381,3.562,3.713,3.877,3.204c0.313-0.51,0.981-0.667,1.491-0.352l4.178,2.582
	c0.312,0.192,0.505,0.529,0.514,0.896C10.068,6.695,9.892,7.042,9.59,7.249z"/>
<g>
</g>
<g>
</g>
<g>
</g>
<g>
</g>
<g>
</g>
<g>
</g>
<g>
</g>
<g>
</g>
<g>
</g>
<g>
</g>
<g>
</g>
<g>
</g>
<g>
</g>
<g>
</g>
<g>
</g>
</svg>
